<svg width="368" height="70" viewBox="0 0 368 70" fill="none" xmlns="http://www.w3.org/2000/svg">
<g clip-path="url(#clip0_149_765)">
<path d="M274.239 16.8786C277.112 16.8786 279.721 17.2417 282.065 17.968C284.409 18.6943 286.387 19.6335 288 20.7855C289.008 21.4867 289.802 22.2631 290.382 23.1146C290.962 23.9661 291.252 25.0681 291.252 26.4205V52.7171L291.239 53.4321C291.156 55.7855 290.656 57.8387 289.739 59.5918C288.731 61.5202 287.358 63.1231 285.618 64.4003C283.879 65.6776 281.838 66.6167 279.494 67.2178C277.15 67.8189 274.642 68.1194 271.97 68.1194C267.383 68.1194 263.779 67.5058 261.157 66.2787C258.536 65.0515 257.225 63.0604 257.225 60.3056C257.225 59.1535 257.465 58.1392 257.944 57.2627C258.423 56.3861 258.965 55.7224 259.57 55.2716C261.031 56.0731 262.682 56.7493 264.522 57.3002C266.362 57.8512 268.265 58.1267 270.231 58.1267C272.953 58.1267 275.121 57.6759 276.734 56.7743C278.347 55.8727 279.153 54.4201 279.153 52.4166V51.2144L278.579 51.4492C276.625 52.1943 274.296 52.5668 271.592 52.5668C269.324 52.5668 267.169 52.2287 265.127 51.5525C263.086 50.8763 261.296 49.8245 259.759 48.3969C258.221 46.9694 256.986 45.1287 256.053 42.8747C255.121 40.6207 254.655 37.9409 254.655 34.8354C254.655 31.78 255.146 29.1253 256.129 26.8713C257.112 24.6173 258.473 22.7515 260.212 21.2739C261.951 19.7962 264.018 18.6943 266.413 17.968C268.807 17.2417 271.416 16.8786 274.239 16.8786ZM70.7076 18.0449C75.2029 18.0449 78.8815 19.0473 81.7432 21.0519C84.6049 23.0565 86.2989 26.5973 86.8252 31.6742H77.2204L77.1284 31.1125C76.9109 30.0053 76.492 28.9941 75.8718 28.0789C74.8192 26.6408 73.1855 25.9218 70.9707 25.9218C67.813 25.9218 65.653 27.4797 64.4908 30.5956C63.8768 32.2516 63.5698 34.4523 63.5698 37.1978C63.5698 39.8125 63.8768 41.9152 64.4908 43.5058C65.6091 46.4691 67.7143 47.9508 70.8062 47.9508C72.9991 47.9508 74.556 47.3625 75.4771 46.1859C76.3981 45.0093 76.9572 43.484 77.1546 41.6101H86.7265L86.6615 42.2611C86.3438 44.8542 85.3348 47.3172 83.6345 49.6504C80.6961 53.725 76.3432 55.7623 70.576 55.7623C64.8087 55.7623 60.5655 54.0627 57.8464 50.6636C55.1272 47.2645 53.7676 42.8521 53.7676 37.4266C53.7676 31.3038 55.2697 26.5428 58.274 23.1437C61.2782 19.7445 65.4227 18.0449 70.7076 18.0449ZM157.823 17.9469C160.806 17.9469 163.492 18.5025 165.882 19.6138C168.272 20.725 170.246 22.4791 171.803 24.8759C173.206 26.9895 174.116 29.4408 174.533 32.2298C174.774 33.864 174.873 36.2173 174.829 39.2896H150.291L150.324 39.9091C150.559 43.1541 151.677 45.4534 153.679 46.8069C154.973 47.7002 156.53 48.1469 158.35 48.1469C160.279 48.1469 161.847 47.6022 163.053 46.5127C163.711 45.9244 164.292 45.1073 164.797 44.0614H174.369L174.298 44.5497C173.952 46.5054 172.868 48.4888 171.046 50.5002C167.976 53.9647 163.678 55.6969 158.152 55.6969C153.591 55.6969 149.567 54.237 146.081 51.3173C142.594 48.3975 140.851 43.6474 140.851 37.067C140.851 30.9007 142.424 26.1724 145.571 22.8822C148.718 19.592 152.802 17.9469 157.823 17.9469ZM223.646 4.85726C224.755 4.85726 225.751 4.93239 226.633 5.08266C227.515 5.23292 228.259 5.53346 228.863 5.98426C229.468 6.43505 229.935 7.04864 230.262 7.82502C230.59 8.6014 230.754 9.61569 230.754 10.8679V54.4452L230.5 54.4904C229.96 54.5855 229.225 54.7081 228.296 54.8584C227.213 55.0337 226.116 55.1214 225.007 55.1214C223.898 55.1214 222.903 55.0462 222.02 54.896C221.138 54.7457 220.395 54.4452 219.79 53.9944C219.185 53.5436 218.719 52.93 218.391 52.1536C218.063 51.3772 217.899 50.3629 217.899 49.1107V5.53346L218.153 5.48822C218.693 5.39316 219.428 5.27049 220.357 5.12022C221.441 4.94491 222.537 4.85726 223.646 4.85726ZM242.969 17.8553C244.078 17.8553 245.073 17.9304 245.956 18.0807C246.838 18.231 247.581 18.5315 248.186 18.9823C248.791 19.4331 249.257 20.0467 249.585 20.8231C249.913 21.5994 250.077 22.6137 250.077 23.866V54.4452L249.823 54.4904C249.283 54.5855 248.548 54.7081 247.619 54.8584C246.535 55.0337 245.439 55.1214 244.33 55.1214C243.221 55.1214 242.225 55.0462 241.343 54.896C240.461 54.7457 239.717 54.4452 239.113 53.9944C238.508 53.5436 238.041 52.93 237.714 52.1536C237.386 51.3772 237.222 50.3629 237.222 49.1107V18.5315L237.476 18.4863C238.016 18.3912 238.751 18.2685 239.68 18.1183C240.763 17.943 241.86 17.8553 242.969 17.8553ZM303.164 4.85726C304.273 4.85726 305.269 4.93239 306.151 5.08266C307.033 5.23292 307.777 5.53346 308.382 5.98426C308.987 6.43505 309.453 7.04864 309.78 7.82502C310.108 8.6014 310.272 9.61569 310.272 10.8679V18.231L310.534 18.1353C311.181 17.9079 312.09 17.6518 313.259 17.3669C314.595 17.0414 316.069 16.8786 317.682 16.8786C322.673 16.8786 326.567 18.1183 329.364 20.5977C332.162 23.0771 333.561 26.7711 333.561 31.6798V54.4452L333.327 54.5096C332.824 54.6384 332.108 54.7672 331.179 54.896C330.095 55.0462 328.974 55.1214 327.814 55.1214C326.705 55.1214 325.71 55.0462 324.828 54.896C323.945 54.7457 323.202 54.4452 322.597 53.9944C321.992 53.5436 321.526 52.93 321.198 52.1536C320.87 51.3772 320.707 50.3629 320.707 49.1107V32.4311L320.698 31.9681C320.624 30.1596 320.11 28.8739 319.157 28.111C318.123 27.2845 316.85 26.8713 315.338 26.8713C314.33 26.8713 313.372 26.9965 312.465 27.2469C311.557 27.4974 310.826 27.7979 310.272 28.1485V54.4452L310.038 54.5096C309.535 54.6384 308.819 54.7672 307.89 54.896C306.806 55.0462 305.685 55.1214 304.525 55.1214C303.416 55.1214 302.421 55.0462 301.539 54.896C300.656 54.7457 299.913 54.4452 299.308 53.9944C298.703 53.5436 298.237 52.93 297.909 52.1536C297.581 51.3772 297.418 50.3629 297.418 49.1107V5.53346L297.671 5.48822C298.212 5.39316 298.946 5.27049 299.875 5.12022C300.959 4.94491 302.055 4.85726 303.164 4.85726ZM212.641 8.98958L212.814 9.28072C213.098 9.79205 213.355 10.4338 213.586 11.206C213.863 12.1327 214.002 13.0969 214.002 14.0986C214.002 16.0521 213.586 17.4421 212.754 18.2685C211.923 19.095 210.801 19.5082 209.389 19.5082H193.511V27.9983H210.07L210.266 28.2884C210.585 28.7962 210.86 29.4258 211.091 30.1771C211.368 31.0787 211.507 32.0304 211.507 33.0322C211.507 34.9356 211.091 36.3005 210.259 37.127C209.427 37.9534 208.306 38.3667 206.894 38.3667H193.662V54.2198L193.405 54.2842C192.852 54.413 192.069 54.5418 191.053 54.6706C189.869 54.8208 188.697 54.896 187.537 54.896C186.378 54.896 185.357 54.8083 184.475 54.633C183.593 54.4577 182.849 54.1446 182.244 53.6938C181.639 53.243 181.186 52.6169 180.883 51.8155C180.581 51.0141 180.429 49.9622 180.429 48.6599V15.977L180.443 15.4479C180.539 13.5424 181.165 12.0158 182.32 10.8679C183.58 9.61569 185.294 8.98958 187.461 8.98958H212.641ZM34.9208 6.40944V14.8746H10.6129V25.9545H31.8947V34.3216H10.6129V54.5203H0.547607V6.40944H34.9208ZM48.6532 18.8947V54.5203H39.1471V18.8947H48.6532ZM100.459 6.50749V32.4586L112.136 19.0582H123.747L111.215 32.6874L124.241 54.5203H112.925L104.34 39.2896L100.459 43.3097V54.5203H91.2488V6.50749H100.459ZM136.46 6.34407V54.5203H127.085V6.34407H136.46ZM334.261 8.6806C335.832 8.21107 338.514 8.10663 341.654 9.4862C344.823 10.8789 346.8 13.2677 347.584 16.6526L364.597 18.0893C364.808 18.1015 365.017 18.1439 365.226 18.2166C365.538 18.3256 365.706 18.479 365.847 18.599C366.192 18.8934 366.305 19.1204 366.469 19.5269C366.762 20.2497 366.673 21.1005 366.292 21.6838C365.677 22.6242 364.715 23.2327 363.406 23.5093L349.671 26.4101L352.096 37.7438C352.374 39.0448 352.988 39.8828 353.936 40.2577C354.885 40.6327 356.115 40.6606 357.625 40.3415C358.381 40.182 359.148 39.9546 359.927 39.6593C360.706 39.364 361.376 39.0525 361.938 38.7247C362.509 39.1794 363.03 39.7099 363.502 40.3163C363.974 40.9227 364.311 41.7013 364.515 42.652C365.266 46.1666 359.699 49.487 356.05 50.1386C352.671 50.7421 347.484 51.2434 344.52 43.5264C341.556 35.8093 336.899 22.8738 333.345 12.0938C333.038 11.1635 332.848 10.2498 333.178 9.49583C333.357 9.0883 333.486 8.91239 334.261 8.6806ZM274.843 26.8713C272.373 26.8713 270.521 27.56 269.286 28.9374C268.051 30.3149 267.433 32.2809 267.433 34.8354C267.433 37.7406 268.051 39.8318 269.286 41.109C270.521 42.3863 272.096 43.0249 274.012 43.0249C276.079 43.0249 277.717 42.5491 278.927 41.5974V27.7729L278.695 27.6527C278.361 27.4924 277.921 27.3321 277.377 27.1718C276.696 26.9715 275.852 26.8713 274.843 26.8713ZM157.823 25.6276C155.652 25.6276 153.969 26.3031 152.774 27.654C151.579 29.005 150.828 30.8353 150.521 33.145H165.093C164.939 30.6828 164.188 28.8143 162.84 27.5397C161.491 26.265 159.819 25.6276 157.823 25.6276ZM48.6532 6.04992V14.6458H39.1471V6.04992H48.6532ZM243.649 1.1006C245.767 1.1006 247.468 1.75175 248.753 3.05406C250.039 4.35637 250.681 5.95921 250.681 7.86259C250.681 9.76596 250.039 11.3688 248.753 12.6711C247.468 13.9734 245.767 14.6246 243.649 14.6246C241.532 14.6246 239.831 13.9734 238.545 12.6711C237.26 11.3688 236.617 9.76596 236.617 7.86259C236.617 5.95921 237.26 4.35637 238.545 3.05406C239.831 1.75175 241.532 1.1006 243.649 1.1006Z" fill="white"/>
</g>
<defs>
<clipPath id="clip0_149_765">
<rect width="366.746" height="69.1132" fill="white" transform="translate(0.547607)"/>
</clipPath>
</defs>
</svg>
